<svg xmlns="http://www.w3.org/2000/svg" viewBox="0 0 841.9 595.3">
  <g fill="#61DAFB">
    <path d="M666.3 296.5c0-23.2-18.8-42-42-42s-42 18.8-42 42 18.8 42 42 42 42-18.8 42-42z"/>
    <path d="M520.5 78.1c-33.1 0-67.1 5.4-100.6 16.1C363.5 58.4 299 41.6 234.2 41.6 139 41.6 59.3 95.8 33.8 179.5c-25.3 82.8 8.5 181.4 86.4 262.8-33.3 25.2-58.5 53.8-72.6 84.7-14.5 32.1-16.6 67.3-5.5 100.2 11.8 35.4 35.4 67.8 70.2 96.5 34.5 28.2 77.2 49.2 124.2 61.4 45.6 12 94.8 15.3 144.3 10.3 51.2-5.2 100.8-18.2 145.8-38.1 44.8-19.8 84.4-46.4 117.8-78.3 33.5-31.9 59.9-69.2 77.8-110.3 17.8-40.8 27.1-85 27.1-130.1 0-45.1-9.3-89.3-27.1-130.1-17.9-41.1-44.3-78.4-77.8-110.3-33.4-31.9-73-58.5-117.8-78.3C621.3 89.8 571.7 76.8 520.5 78.1z"/>
  </g>
</svg>

